<?xml version="1.0" standalone="no"?>
<!DOCTYPE svg PUBLIC "-//W3C//DTD SVG 20010904//EN"
 "http://www.w3.org/TR/2001/REC-SVG-20010904/DTD/svg10.dtd">
<svg version="1.0" xmlns="http://www.w3.org/2000/svg"
 width="96.000000pt" height="96.000000pt" viewBox="0 0 96.000000 96.000000"
 preserveAspectRatio="xMidYMid meet">
<metadata>
Created by potrace 1.16, written by Peter Selinger 2001-2019
</metadata>
<g transform="translate(0.000000,96.000000) scale(0.100000,-0.100000)"
fill="#000000" stroke="none">
<path d="M367 926 c-59 -16 -114 -60 -141 -112 -17 -32 -21 -57 -21 -146 0
-74 4 -111 13 -120 17 -17 32 5 32 49 0 26 25 66 75 121 2 2 27 -4 56 -12 53
-16 174 -20 219 -7 34 10 110 -51 110 -89 0 -40 11 -70 25 -70 20 0 25 25 25
128 -1 140 -37 207 -135 248 -53 22 -196 28 -258 10z"/>
</g>
</svg>
